<svg width="518" height="388" viewBox="0 0 518 388" fill="none" xmlns="http://www.w3.org/2000/svg">
<path d="M394.806 81.5317H123.206C118.199 81.5317 114.141 85.5851 114.141 90.5851V257.761C114.141 262.761 118.199 266.815 123.206 266.815H394.806C399.812 266.815 403.871 262.761 403.871 257.761V90.5851C403.871 85.5851 399.812 81.5317 394.806 81.5317Z" fill="white"/>
<path d="M394.792 267.461H123.205C120.629 267.461 118.158 266.44 116.337 264.62C114.515 262.801 113.492 260.334 113.492 257.761V90.5335C113.496 87.9619 114.52 85.4967 116.341 83.6783C118.161 81.86 120.63 80.8369 123.205 80.8335H394.792C397.367 80.8369 399.835 81.86 401.656 83.6783C403.477 85.4967 404.501 87.9619 404.505 90.5335V257.761C404.505 260.334 403.481 262.801 401.66 264.62C399.838 266.44 397.368 267.461 394.792 267.461ZM123.205 82.1786C120.973 82.182 118.834 83.0688 117.256 84.6446C115.679 86.2204 114.791 88.3567 114.787 90.5852V257.761C114.791 259.99 115.679 262.126 117.256 263.702C118.834 265.278 120.973 266.165 123.205 266.168H394.792C397.023 266.165 399.163 265.278 400.74 263.702C402.318 262.126 403.206 259.99 403.21 257.761V90.5335C403.206 88.305 402.318 86.1687 400.74 84.5929C399.163 83.0171 397.023 82.1303 394.792 82.1268L123.205 82.1786Z" fill="#231F20"/>
<path d="M403.857 238.155H114.14C113.968 238.155 113.803 238.087 113.682 237.965C113.56 237.844 113.492 237.68 113.492 237.508C113.492 237.336 113.56 237.172 113.682 237.051C113.803 236.929 113.968 236.861 114.14 236.861H403.857C404.029 236.861 404.194 236.929 404.315 237.051C404.436 237.172 404.505 237.336 404.505 237.508C404.505 237.68 404.436 237.844 404.315 237.965C404.194 238.087 404.029 238.155 403.857 238.155Z" fill="#231F20"/>
<path d="M296.023 302.627H221.975L235.624 266.815H282.373L296.023 302.627Z" fill="white"/>
<path d="M296.036 303.274H221.962C221.859 303.272 221.757 303.247 221.665 303.2C221.573 303.153 221.493 303.085 221.431 303.002C221.374 302.915 221.337 302.816 221.326 302.713C221.315 302.609 221.329 302.504 221.367 302.407L235.016 266.582C235.065 266.46 235.149 266.356 235.257 266.282C235.366 266.209 235.494 266.169 235.625 266.168H282.374C282.505 266.169 282.633 266.209 282.742 266.282C282.85 266.356 282.934 266.46 282.983 266.582L296.632 302.407C296.67 302.504 296.684 302.609 296.673 302.713C296.662 302.816 296.625 302.915 296.567 303.002C296.506 303.085 296.426 303.153 296.334 303.2C296.242 303.247 296.14 303.272 296.036 303.274ZM222.908 301.98H295.091L281.934 267.461H236.065L222.908 301.98Z" fill="#231F20"/>
<path d="M304.712 300.532H213.272C210.876 300.532 208.934 302.472 208.934 304.865V305.861C208.934 308.254 210.876 310.193 213.272 310.193H304.712C307.108 310.193 309.05 308.254 309.05 305.861V304.865C309.05 302.472 307.108 300.532 304.712 300.532Z" fill="white"/>
<path d="M304.713 310.84H213.286C211.962 310.84 210.693 310.316 209.756 309.382C208.819 308.449 208.291 307.182 208.287 305.86V304.865C208.291 303.543 208.819 302.276 209.756 301.343C210.693 300.409 211.962 299.885 213.286 299.885H304.713C306.036 299.885 307.306 300.409 308.243 301.343C309.18 302.276 309.708 303.543 309.712 304.865V305.86C309.708 307.182 309.18 308.449 308.243 309.382C307.306 310.316 306.036 310.84 304.713 310.84ZM213.286 301.179C212.306 301.179 211.366 301.567 210.671 302.257C209.977 302.948 209.586 303.886 209.582 304.865V305.86C209.586 306.839 209.977 307.777 210.671 308.468C211.366 309.159 212.306 309.546 213.286 309.546H304.713C305.693 309.546 306.633 309.159 307.327 308.468C308.021 307.777 308.413 306.839 308.417 305.86V304.865C308.413 303.886 308.021 302.948 307.327 302.257C306.633 301.567 305.693 301.179 304.713 301.179H213.286Z" fill="#231F20"/>
<path d="M393.511 90.2617H124.475V226.165H393.511V90.2617Z" fill="#FF004C"/>
<path d="M393.511 90.2617H124.475V226.165H393.511V90.2617Z" fill="#231F20"/>
<path d="M260.553 90.2617H124.475V226.165H260.553V90.2617Z" fill="#FF004C"/>
<path d="M228.865 283.176L284.006 272.48L281.857 266.815H235.107L228.865 283.176Z" fill="#231F20"/>
<path d="M228.864 283.822C228.77 283.822 228.677 283.801 228.592 283.761C228.507 283.721 228.431 283.662 228.372 283.589C228.298 283.501 228.248 283.395 228.227 283.281C228.207 283.168 228.216 283.051 228.255 282.943L234.497 266.582C234.545 266.459 234.628 266.354 234.737 266.28C234.846 266.206 234.974 266.167 235.106 266.168H281.855C281.985 266.17 282.111 266.21 282.217 266.284C282.323 266.358 282.405 266.461 282.451 266.582L284.614 272.247C284.648 272.335 284.662 272.429 284.655 272.523C284.649 272.617 284.622 272.709 284.576 272.791C284.531 272.874 284.467 272.945 284.391 273.001C284.315 273.057 284.227 273.095 284.135 273.113L228.993 283.809L228.864 283.822ZM235.546 267.461L229.887 282.322L283.124 271.975L281.402 267.448L235.546 267.461Z" fill="#231F20"/>
<path d="M287.489 110.089H271.095C270.923 110.089 270.758 110.021 270.637 109.899C270.515 109.778 270.447 109.614 270.447 109.442C270.447 109.271 270.515 109.106 270.637 108.985C270.758 108.864 270.923 108.795 271.095 108.795H287.489C287.661 108.795 287.826 108.864 287.947 108.985C288.069 109.106 288.137 109.271 288.137 109.442C288.137 109.614 288.069 109.778 287.947 109.899C287.826 110.021 287.661 110.089 287.489 110.089Z" fill="#FF004C"/>
<path d="M328.605 110.089H296.022C295.851 110.089 295.686 110.021 295.565 109.899C295.443 109.778 295.375 109.614 295.375 109.442C295.375 109.271 295.443 109.106 295.565 108.985C295.686 108.864 295.851 108.795 296.022 108.795H328.605C328.776 108.795 328.941 108.864 329.063 108.985C329.184 109.106 329.252 109.271 329.252 109.442C329.252 109.614 329.184 109.778 329.063 109.899C328.941 110.021 328.776 110.089 328.605 110.089Z" fill="white"/>
<path d="M338.409 122.686H305.827C305.655 122.686 305.491 122.618 305.369 122.497C305.248 122.375 305.18 122.211 305.18 122.039C305.18 121.868 305.248 121.703 305.369 121.582C305.491 121.461 305.655 121.393 305.827 121.393H338.409C338.581 121.393 338.746 121.461 338.867 121.582C338.989 121.703 339.057 121.868 339.057 122.039C339.057 122.211 338.989 122.375 338.867 122.497C338.746 122.618 338.581 122.686 338.409 122.686Z" fill="white"/>
<path d="M291.257 122.686H274.927C274.755 122.686 274.59 122.618 274.469 122.497C274.348 122.375 274.279 122.211 274.279 122.039C274.279 121.868 274.348 121.703 274.469 121.582C274.59 121.461 274.755 121.393 274.927 121.393H291.257C291.428 121.393 291.593 121.461 291.715 121.582C291.836 121.703 291.904 121.868 291.904 122.039C291.904 122.211 291.836 122.375 291.715 122.497C291.593 122.618 291.428 122.686 291.257 122.686Z" fill="#FF004C"/>
<path d="M291.879 135.283H278.761C278.589 135.283 278.424 135.214 278.303 135.093C278.182 134.972 278.113 134.807 278.113 134.636C278.113 134.464 278.182 134.3 278.303 134.179C278.424 134.057 278.589 133.989 278.761 133.989H291.879C292.05 133.993 292.213 134.062 292.333 134.182C292.454 134.303 292.523 134.465 292.527 134.636C292.527 134.807 292.458 134.972 292.337 135.093C292.216 135.214 292.051 135.283 291.879 135.283Z" fill="#FF004C"/>
<path d="M344.236 135.283H303.456C303.284 135.283 303.12 135.214 302.998 135.093C302.877 134.972 302.809 134.807 302.809 134.636C302.809 134.464 302.877 134.3 302.998 134.179C303.12 134.057 303.284 133.989 303.456 133.989H344.236C344.407 133.989 344.572 134.057 344.693 134.179C344.815 134.3 344.883 134.464 344.883 134.636C344.883 134.807 344.815 134.972 344.693 135.093C344.572 135.214 344.407 135.283 344.236 135.283Z" fill="white"/>
<path d="M298.925 147.893H282.595C282.423 147.893 282.258 147.825 282.137 147.704C282.015 147.582 281.947 147.418 281.947 147.246C281.947 147.075 282.015 146.91 282.137 146.789C282.258 146.668 282.423 146.6 282.595 146.6H298.925C299.096 146.6 299.261 146.668 299.383 146.789C299.504 146.91 299.572 147.075 299.572 147.246C299.569 147.417 299.5 147.579 299.379 147.7C299.258 147.82 299.095 147.89 298.925 147.893Z" fill="#FF004C"/>
<path d="M352.667 147.893H304.183C304.011 147.893 303.846 147.825 303.725 147.704C303.603 147.582 303.535 147.418 303.535 147.246C303.535 147.075 303.603 146.91 303.725 146.789C303.846 146.668 304.011 146.6 304.183 146.6H352.667C352.839 146.6 353.004 146.668 353.125 146.789C353.247 146.91 353.315 147.075 353.315 147.246C353.315 147.418 353.247 147.582 353.125 147.704C353.004 147.825 352.839 147.893 352.667 147.893Z" fill="white"/>
<path d="M294.585 160.49H278.255C278.083 160.49 277.919 160.422 277.797 160.301C277.676 160.179 277.607 160.015 277.607 159.843C277.607 159.672 277.676 159.507 277.797 159.386C277.919 159.265 278.083 159.197 278.255 159.197H294.585C294.757 159.197 294.921 159.265 295.043 159.386C295.164 159.507 295.232 159.672 295.232 159.843C295.232 160.015 295.164 160.179 295.043 160.301C294.921 160.422 294.757 160.49 294.585 160.49Z" fill="#FF004C"/>
<path d="M327.142 160.49H300.841C300.669 160.49 300.504 160.422 300.383 160.301C300.262 160.179 300.193 160.015 300.193 159.843C300.193 159.672 300.262 159.507 300.383 159.386C300.504 159.265 300.669 159.197 300.841 159.197H327.142C327.314 159.197 327.479 159.265 327.6 159.386C327.722 159.507 327.79 159.672 327.79 159.843C327.79 160.015 327.722 160.179 327.6 160.301C327.479 160.422 327.314 160.49 327.142 160.49Z" fill="white"/>
<path d="M363.48 160.49H337.179C337.007 160.49 336.842 160.422 336.721 160.301C336.599 160.179 336.531 160.015 336.531 159.843C336.531 159.672 336.599 159.507 336.721 159.386C336.842 159.265 337.007 159.197 337.179 159.197H363.48C363.652 159.197 363.817 159.265 363.938 159.386C364.059 159.507 364.128 159.672 364.128 159.843C364.128 160.015 364.059 160.179 363.938 160.301C363.817 160.422 363.652 160.49 363.48 160.49Z" fill="#FF004C"/>
<path d="M283.888 173.087H278.255C278.083 173.087 277.919 173.019 277.797 172.897C277.676 172.776 277.607 172.612 277.607 172.44C277.611 172.27 277.68 172.107 277.801 171.987C277.921 171.866 278.084 171.797 278.255 171.793H283.888C284.059 171.797 284.222 171.866 284.342 171.987C284.463 172.107 284.532 172.27 284.536 172.44C284.536 172.612 284.467 172.776 284.346 172.897C284.225 173.019 284.06 173.087 283.888 173.087Z" fill="#FF004C"/>
<path d="M327.142 173.087H293.472C293.3 173.087 293.135 173.019 293.014 172.897C292.892 172.776 292.824 172.612 292.824 172.44C292.828 172.27 292.897 172.107 293.018 171.987C293.138 171.866 293.301 171.797 293.472 171.793H327.142C327.312 171.797 327.475 171.866 327.596 171.987C327.717 172.107 327.786 172.27 327.789 172.44C327.789 172.612 327.721 172.776 327.6 172.897C327.478 173.019 327.313 173.087 327.142 173.087Z" fill="white"/>
<path d="M340.403 173.087H331.015C330.843 173.087 330.678 173.019 330.557 172.897C330.435 172.776 330.367 172.612 330.367 172.44C330.367 172.269 330.435 172.104 330.557 171.983C330.678 171.862 330.843 171.793 331.015 171.793H340.403C340.575 171.793 340.74 171.862 340.861 171.983C340.983 172.104 341.051 172.269 341.051 172.44C341.051 172.612 340.983 172.776 340.861 172.897C340.74 173.019 340.575 173.087 340.403 173.087Z" fill="#FF004C"/>
<path d="M287.1 185.697H278.255C278.084 185.694 277.921 185.625 277.801 185.504C277.68 185.384 277.611 185.221 277.607 185.05C277.607 184.879 277.676 184.714 277.797 184.593C277.919 184.472 278.083 184.404 278.255 184.404H287.1C287.272 184.404 287.436 184.472 287.558 184.593C287.679 184.714 287.747 184.879 287.747 185.05C287.744 185.221 287.675 185.384 287.554 185.504C287.433 185.625 287.27 185.694 287.1 185.697Z" fill="#FF004C"/>
<path d="M335.405 185.697H295.415C295.244 185.694 295.082 185.625 294.961 185.504C294.84 185.384 294.771 185.221 294.768 185.05C294.768 184.879 294.836 184.714 294.957 184.593C295.079 184.472 295.243 184.404 295.415 184.404H335.405C335.576 184.404 335.741 184.472 335.863 184.593C335.984 184.714 336.052 184.879 336.052 185.05C336.052 185.222 335.984 185.386 335.863 185.508C335.741 185.629 335.576 185.697 335.405 185.697Z" fill="white"/>
<path d="M355.659 185.697H339.29C339.118 185.697 338.954 185.629 338.832 185.508C338.711 185.386 338.643 185.222 338.643 185.05C338.643 184.879 338.711 184.714 338.832 184.593C338.954 184.472 339.118 184.404 339.29 184.404H355.62C355.792 184.404 355.956 184.472 356.078 184.593C356.199 184.714 356.268 184.879 356.268 185.05C356.268 185.215 356.205 185.374 356.092 185.495C355.979 185.615 355.824 185.687 355.659 185.697Z" fill="#FF004C"/>
<path d="M283.086 198.294H274.423C274.251 198.294 274.086 198.226 273.965 198.104C273.844 197.983 273.775 197.819 273.775 197.647C273.775 197.476 273.844 197.311 273.965 197.19C274.086 197.069 274.251 197 274.423 197H283.086C283.258 197 283.423 197.069 283.544 197.19C283.666 197.311 283.734 197.476 283.734 197.647C283.734 197.819 283.666 197.983 283.544 198.104C283.423 198.226 283.258 198.294 283.086 198.294Z" fill="#FF004C"/>
<path d="M331.015 198.294H293.175C293.003 198.294 292.838 198.226 292.717 198.104C292.596 197.983 292.527 197.819 292.527 197.647C292.527 197.476 292.596 197.311 292.717 197.19C292.838 197.069 293.003 197 293.175 197H331.015C331.186 197 331.351 197.069 331.473 197.19C331.594 197.311 331.662 197.476 331.662 197.647C331.662 197.819 331.594 197.983 331.473 198.104C331.351 198.226 331.186 198.294 331.015 198.294Z" fill="white"/>
<path d="M290.753 210.891H274.423C274.251 210.891 274.086 210.823 273.965 210.702C273.844 210.58 273.775 210.416 273.775 210.244C273.779 210.074 273.848 209.911 273.969 209.791C274.089 209.67 274.252 209.601 274.423 209.598H290.753C290.925 209.598 291.089 209.666 291.211 209.787C291.332 209.908 291.4 210.073 291.4 210.244C291.4 210.416 291.332 210.58 291.211 210.702C291.089 210.823 290.925 210.891 290.753 210.891Z" fill="#FF004C"/>
<path d="M381.339 147.893H359.259C359.088 147.89 358.925 147.82 358.805 147.7C358.684 147.579 358.615 147.417 358.611 147.246C358.611 147.075 358.68 146.91 358.801 146.789C358.922 146.668 359.087 146.6 359.259 146.6H381.339C381.51 146.6 381.675 146.668 381.796 146.789C381.918 146.91 381.986 147.075 381.986 147.246C381.986 147.418 381.918 147.582 381.796 147.704C381.675 147.825 381.51 147.893 381.339 147.893Z" fill="#FF004C"/>
<path d="M348.355 110.153C340.973 110.153 337.153 110.153 336.959 110.063C336.787 110.023 336.638 109.917 336.545 109.768C336.451 109.619 336.421 109.439 336.46 109.267C336.5 109.096 336.606 108.947 336.755 108.854C336.905 108.76 337.085 108.73 337.257 108.769C338.474 108.873 364.232 108.769 374.086 108.769C374.258 108.769 374.423 108.837 374.544 108.959C374.666 109.08 374.734 109.244 374.734 109.416C374.734 109.588 374.666 109.752 374.544 109.873C374.423 109.995 374.258 110.063 374.086 110.063C363.118 110.127 354.519 110.153 348.355 110.153Z" fill="#FF004C"/>
<path d="M351.902 198.294H335.403C335.232 198.294 335.067 198.226 334.946 198.104C334.824 197.983 334.756 197.819 334.756 197.647C334.756 197.476 334.824 197.311 334.946 197.19C335.067 197.069 335.232 197 335.403 197H351.928C352.099 197 352.264 197.069 352.385 197.19C352.507 197.311 352.575 197.476 352.575 197.647C352.575 197.819 352.507 197.983 352.385 198.104C352.264 198.226 352.099 198.294 351.928 198.294H351.902Z" fill="#FF004C"/>
<path d="M313.984 210.891H301.837C301.665 210.891 301.501 210.823 301.379 210.702C301.258 210.58 301.189 210.416 301.189 210.244C301.193 210.074 301.262 209.911 301.383 209.791C301.503 209.67 301.666 209.601 301.837 209.598H313.984C314.156 209.598 314.32 209.666 314.442 209.787C314.563 209.908 314.632 210.073 314.632 210.244C314.632 210.416 314.563 210.58 314.442 210.702C314.32 210.823 314.156 210.891 313.984 210.891Z" fill="white"/>
<path d="M347.487 210.891H318.569C318.398 210.891 318.233 210.823 318.112 210.702C317.99 210.58 317.922 210.416 317.922 210.244C317.925 210.074 317.994 209.911 318.115 209.791C318.236 209.67 318.399 209.601 318.569 209.598H347.448C347.62 209.598 347.784 209.666 347.906 209.787C348.027 209.908 348.095 210.073 348.095 210.244C348.096 210.409 348.033 210.568 347.92 210.688C347.807 210.809 347.652 210.881 347.487 210.891Z" fill="#FF004C"/>
<path d="M298.69 104.631H124.474C124.303 104.627 124.14 104.558 124.019 104.438C123.899 104.317 123.829 104.155 123.826 103.984C123.826 103.813 123.894 103.648 124.016 103.527C124.137 103.406 124.302 103.337 124.474 103.337H298.69C298.862 103.337 299.026 103.406 299.148 103.527C299.269 103.648 299.338 103.813 299.338 103.984C299.338 104.156 299.269 104.32 299.148 104.441C299.026 104.563 298.862 104.631 298.69 104.631Z" fill="#231F20"/>
<path d="M135.703 99.9748C137.312 99.9748 138.617 98.6719 138.617 97.0648C138.617 95.4576 137.312 94.1548 135.703 94.1548C134.094 94.1548 132.789 95.4576 132.789 97.0648C132.789 98.6719 134.094 99.9748 135.703 99.9748Z" fill="white"/>
<path d="M146.89 99.9748C148.5 99.9748 149.804 98.6719 149.804 97.0648C149.804 95.4576 148.5 94.1548 146.89 94.1548C145.281 94.1548 143.977 95.4576 143.977 97.0648C143.977 98.6719 145.281 99.9748 146.89 99.9748Z" fill="white"/>
<path d="M158.066 99.9748C159.675 99.9748 160.98 98.6719 160.98 97.0648C160.98 95.4576 159.675 94.1548 158.066 94.1548C156.457 94.1548 155.152 95.4576 155.152 97.0648C155.152 98.6719 156.457 99.9748 158.066 99.9748Z" fill="white"/>
<path d="M248.174 112.3H136.467V158.214H248.174V112.3Z" fill="white"/>
<path d="M136.466 158.86C136.341 158.862 136.218 158.826 136.113 158.76C136.007 158.693 135.923 158.596 135.871 158.483C135.819 158.369 135.801 158.243 135.819 158.12C135.838 157.996 135.891 157.881 135.974 157.787L176.792 121.199C176.91 121.089 177.065 121.027 177.226 121.027C177.387 121.027 177.542 121.089 177.66 121.199L211.977 152.782C212.097 152.905 212.163 153.07 212.163 153.241C212.163 153.412 212.097 153.577 211.977 153.7C211.917 153.761 211.845 153.809 211.766 153.842C211.687 153.874 211.603 153.891 211.517 153.891C211.432 153.891 211.347 153.874 211.268 153.842C211.189 153.809 211.118 153.761 211.058 153.7L177.271 122.505L136.893 158.718C136.775 158.82 136.621 158.871 136.466 158.86Z" fill="#FF004C"/>
<path d="M205.282 148.061C205.193 148.063 205.106 148.046 205.025 148.01C204.945 147.974 204.873 147.921 204.815 147.854C204.755 147.795 204.707 147.725 204.675 147.647C204.642 147.569 204.625 147.486 204.625 147.401C204.625 147.317 204.642 147.234 204.675 147.156C204.707 147.078 204.755 147.008 204.815 146.949L226.753 126.54C226.873 126.425 227.033 126.361 227.2 126.361C227.366 126.361 227.526 126.425 227.646 126.54L248.638 146.949C248.758 147.072 248.825 147.236 248.825 147.408C248.825 147.579 248.758 147.744 248.638 147.867C248.578 147.928 248.506 147.976 248.428 148.009C248.349 148.041 248.264 148.058 248.179 148.058C248.093 148.058 248.008 148.041 247.93 148.009C247.851 147.976 247.779 147.928 247.719 147.867L227.219 127.898L205.722 147.893C205.603 148.004 205.445 148.065 205.282 148.061Z" fill="#FF004C"/>
<path d="M207.38 132.011C206.258 132.155 205.117 131.955 204.112 131.436C203.106 130.917 202.283 130.104 201.751 129.105C201.22 128.107 201.006 126.971 201.137 125.848C201.269 124.725 201.74 123.669 202.488 122.82C203.236 121.972 204.226 121.371 205.324 121.098C206.423 120.825 207.578 120.893 208.637 121.293C209.696 121.693 210.608 122.405 211.251 123.336C211.894 124.266 212.238 125.37 212.237 126.501C212.282 127.182 212.193 127.865 211.973 128.511C211.753 129.157 211.408 129.753 210.956 130.265C210.505 130.777 209.957 131.195 209.343 131.494C208.729 131.794 208.062 131.969 207.38 132.011ZM207.38 122.272C206.515 122.123 205.624 122.244 204.829 122.618C204.035 122.992 203.374 123.6 202.937 124.361C202.5 125.122 202.307 125.999 202.386 126.872C202.464 127.746 202.809 128.575 203.375 129.246C203.94 129.918 204.698 130.399 205.547 130.626C206.395 130.853 207.293 130.814 208.119 130.515C208.944 130.215 209.658 129.669 210.163 128.952C210.668 128.234 210.94 127.378 210.942 126.501C211.021 125.471 210.692 124.45 210.026 123.66C209.36 122.869 208.41 122.37 207.38 122.272Z" fill="#FF004C"/>
<path d="M247.344 167.745H136.466C136.294 167.745 136.129 167.677 136.008 167.556C135.887 167.435 135.818 167.27 135.818 167.099C135.818 166.927 135.887 166.763 136.008 166.642C136.129 166.52 136.294 166.452 136.466 166.452H247.344C247.515 166.452 247.68 166.52 247.802 166.642C247.923 166.763 247.991 166.927 247.991 167.099C247.991 167.27 247.923 167.435 247.802 167.556C247.68 167.677 247.515 167.745 247.344 167.745Z" fill="white"/>
<path d="M247.344 176.799H136.466C136.294 176.799 136.129 176.731 136.008 176.609C135.887 176.488 135.818 176.324 135.818 176.152C135.818 175.981 135.887 175.816 136.008 175.695C136.129 175.574 136.294 175.505 136.466 175.505H247.344C247.515 175.505 247.68 175.574 247.802 175.695C247.923 175.816 247.991 175.981 247.991 176.152C247.988 176.323 247.919 176.485 247.798 176.606C247.677 176.726 247.514 176.795 247.344 176.799Z" fill="white"/>
<path d="M231.972 185.839H136.466C136.294 185.839 136.129 185.771 136.008 185.65C135.887 185.529 135.818 185.364 135.818 185.193C135.818 185.021 135.887 184.857 136.008 184.735C136.129 184.614 136.294 184.546 136.466 184.546H231.972C232.143 184.549 232.306 184.618 232.426 184.739C232.547 184.86 232.616 185.022 232.62 185.193C232.62 185.364 232.551 185.529 232.43 185.65C232.309 185.771 232.144 185.839 231.972 185.839Z" fill="white"/>
<path d="M168.09 215.146H136.466C136.294 215.146 136.129 215.078 136.008 214.957C135.887 214.836 135.818 214.671 135.818 214.5V192.513C135.818 192.341 135.887 192.177 136.008 192.056C136.129 191.934 136.294 191.866 136.466 191.866H168.09C168.26 191.87 168.423 191.939 168.544 192.059C168.665 192.18 168.734 192.342 168.737 192.513V214.5C168.734 214.67 168.665 214.833 168.544 214.953C168.423 215.074 168.26 215.143 168.09 215.146ZM137.113 213.853H167.442V193.16H137.113V213.853Z" fill="white"/>
<path d="M207.731 215.146H176.12C175.949 215.143 175.787 215.074 175.666 214.953C175.545 214.833 175.476 214.67 175.473 214.5V192.513C175.476 192.342 175.545 192.18 175.666 192.059C175.787 191.939 175.949 191.87 176.12 191.866H207.744C207.916 191.866 208.08 191.934 208.202 192.056C208.323 192.177 208.392 192.341 208.392 192.513V214.5C208.392 214.586 208.374 214.671 208.341 214.75C208.308 214.829 208.259 214.901 208.197 214.961C208.136 215.022 208.063 215.069 207.983 215.101C207.903 215.132 207.817 215.148 207.731 215.146ZM176.755 213.853H207.084V193.16H176.755V213.853Z" fill="white"/>
<path d="M247.344 215.146H215.759C215.587 215.146 215.422 215.078 215.301 214.957C215.18 214.836 215.111 214.671 215.111 214.5V192.513C215.111 192.341 215.18 192.177 215.301 192.056C215.422 191.934 215.587 191.866 215.759 191.866H247.344C247.515 191.87 247.677 191.939 247.798 192.059C247.919 192.18 247.988 192.342 247.991 192.513V214.5C247.988 214.67 247.919 214.833 247.798 214.953C247.677 215.074 247.515 215.143 247.344 215.146ZM216.367 213.853H246.696V193.16H216.406L216.367 213.853Z" fill="white"/>
<path d="M421.327 310.84H96.6709C96.4992 310.84 96.3345 310.772 96.2131 310.65C96.0917 310.529 96.0234 310.365 96.0234 310.193C96.0234 310.022 96.0917 309.857 96.2131 309.736C96.3345 309.615 96.4992 309.546 96.6709 309.546H421.327C421.499 309.546 421.664 309.615 421.785 309.736C421.907 309.857 421.975 310.022 421.975 310.193C421.975 310.365 421.907 310.529 421.785 310.65C421.664 310.772 421.499 310.84 421.327 310.84Z" fill="#D1D3D4"/>
<path d="M414.58 183.227H299.545V254.218H414.58V183.227Z" fill="white"/>
<path d="M414.581 254.877H299.546C299.375 254.874 299.212 254.805 299.092 254.684C298.971 254.564 298.902 254.401 298.898 254.231V183.227C298.902 183.056 298.971 182.894 299.092 182.773C299.212 182.653 299.375 182.583 299.546 182.58H414.581C414.751 182.583 414.914 182.653 415.035 182.773C415.156 182.894 415.225 183.056 415.228 183.227V254.231C415.225 254.401 415.156 254.564 415.035 254.684C414.914 254.805 414.751 254.874 414.581 254.877ZM300.193 253.584H413.933V183.873H300.193V253.584Z" fill="#D1D3D4"/>
<path d="M414.581 196.328H300.284C300.112 196.328 299.948 196.26 299.826 196.139C299.705 196.017 299.637 195.853 299.637 195.681C299.637 195.51 299.705 195.345 299.826 195.224C299.948 195.103 300.112 195.035 300.284 195.035H414.581C414.753 195.035 414.917 195.103 415.039 195.224C415.16 195.345 415.228 195.51 415.228 195.681C415.228 195.853 415.16 196.017 415.039 196.139C414.917 196.26 414.753 196.328 414.581 196.328Z" fill="#D1D3D4"/>
<path d="M316.574 220.216V217.28L326.559 210.283L328.514 213.995L321.379 218.793L328.514 223.592L326.559 227.316L316.574 220.216Z" fill="#FF004C"/>
<path d="M330.225 218.729C330.225 212.172 334.226 207.58 339.834 207.58C341.916 207.553 343.937 208.283 345.519 209.635C347.101 210.987 348.137 212.868 348.432 214.926L344.198 216.22C343.602 213.711 342.087 212.236 339.834 212.236C336.803 212.236 334.796 214.823 334.796 218.703C334.796 222.583 336.803 225.17 339.834 225.17C342.113 225.17 343.718 223.618 344.288 220.759L348.588 221.988C347.785 226.98 344.288 229.877 339.834 229.877C334.213 229.877 330.225 225.286 330.225 218.729Z" fill="#FF004C"/>
<path d="M349.248 222.208L353.586 221.302C354.156 224.251 355.619 225.493 358.417 225.493C360.54 225.493 361.797 224.743 361.797 223.436C361.797 222.13 360.903 221.535 356.513 220.397C352.123 219.259 349.87 217.306 349.87 214.021C349.87 210.27 352.835 207.619 357.381 207.619C359.325 207.514 361.242 208.108 362.784 209.295C364.326 210.482 365.391 212.181 365.785 214.086L361.46 215.211C361.28 214.275 360.769 213.436 360.019 212.847C359.27 212.258 358.333 211.958 357.381 212.003C355.594 212.003 354.428 212.792 354.428 213.969C354.428 214.939 355.283 215.418 359.44 216.556C364.011 217.849 366.368 219.763 366.368 223.385C366.368 227.368 363.234 229.942 358.391 229.942C353.224 229.877 349.908 227.096 349.248 222.208Z" fill="#FF004C"/>
<path d="M367.041 222.208L371.379 221.302C371.949 224.251 373.412 225.493 376.21 225.493C378.346 225.493 379.603 224.743 379.603 223.436C379.603 222.13 378.696 221.535 374.306 220.397C369.916 219.259 367.663 217.306 367.663 214.021C367.663 210.27 370.641 207.619 375.187 207.619C377.13 207.511 379.046 208.106 380.587 209.293C382.128 210.48 383.189 212.181 383.578 214.086L379.266 215.211C379.084 214.277 378.572 213.439 377.823 212.85C377.074 212.261 376.139 211.961 375.187 212.003C373.387 212.003 372.234 212.792 372.234 213.969C372.234 214.939 373.076 215.418 377.233 216.556C381.804 217.849 384.174 219.763 384.174 223.385C384.174 227.368 381.04 229.942 376.184 229.942C371.03 229.877 367.779 227.096 367.041 222.208Z" fill="#FF004C"/>
<path d="M385.611 223.527L392.747 218.729L385.611 213.931L387.567 210.219L397.564 217.28V220.281L387.58 227.317L385.611 223.527Z" fill="#FF004C"/>
<path d="M146.827 147.841H103.639V186.344H146.827V147.841Z" fill="white"/>
<path d="M146.826 187.003H103.599C103.427 187.003 103.262 186.935 103.141 186.814C103.019 186.692 102.951 186.528 102.951 186.356V147.841C102.951 147.669 103.019 147.505 103.141 147.384C103.262 147.262 103.427 147.194 103.599 147.194H146.787C146.958 147.198 147.12 147.267 147.241 147.387C147.362 147.508 147.431 147.671 147.434 147.841V186.356C147.432 186.521 147.368 186.678 147.255 186.797C147.143 186.917 146.99 186.99 146.826 187.003ZM104.285 185.71H146.178V148.488H104.285V185.71Z" fill="#D1D3D4"/>
<path d="M146.826 153.674H103.599C103.427 153.674 103.262 153.606 103.141 153.485C103.019 153.364 102.951 153.199 102.951 153.028C102.951 152.856 103.019 152.692 103.141 152.57C103.262 152.449 103.427 152.381 103.599 152.381H146.787C146.959 152.381 147.123 152.449 147.245 152.57C147.366 152.692 147.434 152.856 147.434 153.028C147.432 153.192 147.368 153.349 147.255 153.468C147.143 153.588 146.99 153.661 146.826 153.674Z" fill="#D1D3D4"/>
<path d="M109.75 169.711V168.056L117.442 163.438L118.737 165.534L112.962 168.883L118.737 172.259L117.442 174.341L109.75 169.711Z" fill="#FF004C"/>
<path d="M119.812 176.113L128.878 160.593L130.6 161.68L121.535 177.2L119.812 176.113Z" fill="#FF004C"/>
<path d="M131.701 172.259L137.477 168.884L131.701 165.547L132.996 163.452L140.688 168.069V169.724L132.996 174.354L131.701 172.259Z" fill="#FF004C"/>
</svg>
