<svg width="1326" height="572" viewBox="0 0 1326 572" fill="none" xmlns="http://www.w3.org/2000/svg">
<path d="M1179.21 482.712C1151.23 482.712 1127.04 478.597 1106.63 470.368C1086.23 462.139 1070.43 450.454 1059.23 435.313C1048.04 419.842 1042.45 401.739 1042.45 381.002C1042.45 360.594 1047.71 343.313 1058.25 329.159C1069.11 314.676 1084.74 303.814 1105.15 296.573C1125.56 289.002 1150.25 285.217 1179.21 285.217C1208.18 285.217 1232.87 289.002 1253.27 296.573C1274.01 303.814 1289.81 314.676 1300.67 329.159C1311.53 343.642 1316.97 360.923 1316.97 381.002C1316.97 401.739 1311.37 419.842 1300.18 435.313C1288.99 450.454 1273.02 462.139 1252.29 470.368C1231.55 478.597 1207.19 482.712 1179.21 482.712ZM1179.21 442.719C1206.86 442.719 1228.42 437.123 1243.89 425.932C1259.69 414.411 1267.59 398.941 1267.59 379.52C1267.59 360.429 1259.69 345.453 1243.89 334.59C1228.42 323.399 1206.86 317.803 1179.21 317.803C1151.89 317.803 1130.5 323.399 1115.03 334.59C1099.56 345.453 1091.82 360.429 1091.82 379.52C1091.82 398.941 1099.56 414.411 1115.03 425.932C1130.5 437.123 1151.89 442.719 1179.21 442.719ZM1179.21 311.878C1152.88 311.878 1130.5 308.422 1112.06 301.51C1093.63 294.268 1079.48 284.064 1069.6 270.898C1059.73 257.403 1054.79 241.438 1054.79 223.006C1054.79 203.585 1059.89 186.963 1070.1 173.138C1080.63 158.984 1095.28 148.122 1114.04 140.551C1132.8 132.981 1154.53 129.195 1179.21 129.195C1204.23 129.195 1226.12 132.981 1244.88 140.551C1263.64 148.122 1278.29 158.984 1288.82 173.138C1299.36 186.963 1304.62 203.585 1304.62 223.006C1304.62 241.438 1299.68 257.403 1289.81 270.898C1279.93 284.064 1265.62 294.268 1246.85 301.51C1228.09 308.422 1205.55 311.878 1179.21 311.878ZM1179.21 280.279C1203.24 280.279 1222 275.342 1235.5 265.467C1249.32 255.592 1256.24 242.097 1256.24 224.981C1256.24 207.535 1249.16 193.875 1235 184C1220.85 174.126 1202.25 169.188 1179.21 169.188C1156.17 169.188 1137.74 174.126 1123.91 184C1110.42 193.875 1103.67 207.535 1103.67 224.981C1103.67 242.097 1110.25 255.592 1123.42 265.467C1136.92 275.342 1155.51 280.279 1179.21 280.279Z" fill="#FF004C"/>
<mask id="mask0_1319_85" style="mask-type:alpha" maskUnits="userSpaceOnUse" x="39" y="242" width="949" height="239">
<path d="M280.972 283.721C296.545 283.721 310.017 286.811 321.387 292.991C333.005 298.923 342.028 308.069 348.454 320.429C354.881 332.541 358.095 347.619 358.095 365.664V478.753H339.556V367.147C339.556 345.395 334.241 328.833 323.612 317.462C312.983 306.092 298.152 300.406 279.118 300.406C264.534 300.406 251.927 303.496 241.298 309.676C230.669 315.856 222.512 324.507 216.827 335.631C211.141 346.754 208.299 360.102 208.299 375.675V478.753H189.759V367.147C189.759 345.395 184.445 328.833 173.816 317.462C163.187 306.092 148.355 300.406 129.322 300.406C114.738 300.406 102.131 303.496 91.5019 309.676C80.8728 315.856 72.7156 324.507 67.0303 335.631C61.3449 346.754 58.5023 360.102 58.5023 375.675V478.753H39.9631V285.204H57.7607V338.597L55.1652 332.665C60.8506 317.586 70.3673 305.721 83.7155 297.069C97.0637 288.171 113.131 283.721 131.917 283.721C151.198 283.721 167.389 288.665 180.49 298.552C193.838 308.193 202.242 322.653 205.703 341.934L199.4 339.339C204.591 322.777 214.355 309.429 228.692 299.294C243.029 288.912 260.455 283.721 280.972 283.721ZM513.25 480.236C496.688 480.236 482.351 477.27 470.239 471.337C458.127 465.158 448.734 456.012 442.06 443.899C435.633 431.54 432.419 416.338 432.419 398.293V285.204H450.958V396.81C450.958 418.563 456.52 435.124 467.644 446.495C478.767 457.865 494.464 463.551 514.733 463.551C529.317 463.551 541.924 460.461 552.553 454.281C563.182 448.102 571.339 439.45 577.025 428.326C582.71 416.956 585.553 403.608 585.553 388.282V285.204H604.092V478.753H586.294V424.989L588.89 431.293C583.204 446.371 573.688 458.36 560.339 467.259C547.238 475.91 531.542 480.236 513.25 480.236ZM739.036 480.236C721.98 480.236 708.879 475.539 699.733 466.146C690.835 456.753 686.385 443.899 686.385 427.585V242.935H704.924V425.731C704.924 438.09 708.014 447.607 714.194 454.281C720.374 460.955 729.272 464.292 740.89 464.292C753.003 464.292 763.014 460.708 770.924 453.54L778.71 466.517C773.766 471.214 767.71 474.674 760.542 476.899C753.621 479.124 746.452 480.236 739.036 480.236ZM650.79 301.148V285.204H766.474V301.148H650.79ZM902.137 480.236C882.609 480.236 865.306 476.034 850.228 467.629C835.396 459.225 823.655 447.607 815.003 432.776C806.599 417.945 802.397 401.012 802.397 381.979C802.397 362.698 806.352 345.765 814.262 331.181C822.419 316.35 833.543 304.732 847.632 296.328C861.722 287.923 877.542 283.721 895.093 283.721C912.643 283.721 928.339 287.8 942.182 295.957C956.272 304.114 967.272 315.609 975.182 330.44C983.339 345.024 987.417 361.956 987.417 381.237C987.417 381.979 987.294 382.844 987.047 383.833C987.047 384.574 987.047 385.439 987.047 386.428H816.116V371.967H977.036L969.62 379.012C969.867 363.934 966.654 350.462 959.98 338.597C953.553 326.485 944.777 317.092 933.654 310.418C922.53 303.496 909.677 300.036 895.093 300.036C880.756 300.036 867.902 303.496 856.531 310.418C845.408 317.092 836.632 326.485 830.206 338.597C823.779 350.462 820.565 364.057 820.565 379.383V382.72C820.565 398.54 824.026 412.63 830.947 424.989C838.116 437.102 847.879 446.618 860.239 453.54C872.598 460.214 886.688 463.551 902.508 463.551C914.868 463.551 926.362 461.326 936.991 456.877C947.867 452.427 957.013 445.63 964.429 436.484L975.182 448.72C966.777 459.101 956.148 467.011 943.294 472.45C930.688 477.641 916.969 480.236 902.137 480.236Z" fill="black"/>
</mask>
<g mask="url(#mask0_1319_85)">
<rect x="-501.811" y="-569.867" width="1724.17" height="1724.17" transform="rotate(-2.93087 -501.811 -569.867)" fill="#FF1313" fill-opacity="0.02"/>
<rect width="375.429" height="338.342" transform="translate(-426.432 551.344) rotate(-45.4809)" fill="#FF0000"/>
<rect x="-426.432" y="551.344" width="375.429" height="338.342" transform="rotate(-45.4809 -426.432 551.344)" fill="#1B1B1B"/>
<rect width="833.227" height="338.342" transform="translate(-117.688 854.952) rotate(-45.4809)" fill="#FF0000"/>
<rect x="-117.688" y="854.952" width="833.227" height="338.342" transform="rotate(-45.4809 -117.688 854.952)" fill="#1B1B1B"/>
<rect width="1183.96" height="385.071" transform="translate(169.217 1113.73) rotate(-45.4809)" fill="#FF0000"/>
<rect x="169.217" y="1113.73" width="1183.96" height="385.071" transform="rotate(-45.4809 169.217 1113.73)" fill="#1B1B1B"/>
<rect width="370.003" height="821.421" transform="translate(-443.117 -49.2441) rotate(-45.4809)" fill="#FF0000"/>
<rect x="-443.117" y="-49.2441" width="370.003" height="821.421" transform="rotate(-45.4809 -443.117 -49.2441)" fill="#FF004D"/>
<rect width="308.382" height="1204.19" transform="translate(-115.588 -382.348) rotate(-45.4809)" fill="#FF0000"/>
<rect x="-115.588" y="-382.348" width="308.382" height="1204.19" transform="rotate(-45.4809 -115.588 -382.348)" fill="#FF004D"/>
<rect width="314.246" height="1637.2" transform="translate(141.58 -643.862) rotate(-45.4809)" fill="#FF0000"/>
<rect x="141.58" y="-643.862" width="314.246" height="1637.2" transform="rotate(-45.4809 141.58 -643.862)" fill="#FF004D"/>
</g>
</svg>
