<svg width="1325" height="571" viewBox="0 0 1325 571" fill="none" xmlns="http://www.w3.org/2000/svg">
<path d="M1178.55 481.95C1150.57 481.95 1126.38 477.835 1105.97 469.606C1085.57 461.377 1069.77 449.692 1058.57 434.551C1047.38 419.081 1041.79 400.977 1041.79 380.24C1041.79 359.832 1047.05 342.551 1057.59 328.397C1068.45 313.915 1084.08 303.052 1104.49 295.811C1124.9 288.24 1149.59 284.455 1178.55 284.455C1207.52 284.455 1232.21 288.24 1252.61 295.811C1273.35 303.052 1289.15 313.915 1300.01 328.397C1310.87 342.88 1316.31 360.161 1316.31 380.24C1316.31 400.977 1310.71 419.081 1299.52 434.551C1288.33 449.692 1272.36 461.377 1251.63 469.606C1230.89 477.835 1206.53 481.95 1178.55 481.95ZM1178.55 441.957C1206.2 441.957 1227.76 436.361 1243.23 425.17C1259.03 413.65 1266.93 398.179 1266.93 378.759C1266.93 359.668 1259.03 344.691 1243.23 333.829C1227.76 322.637 1206.2 317.042 1178.55 317.042C1151.23 317.042 1129.84 322.637 1114.37 333.829C1098.9 344.691 1091.16 359.668 1091.16 378.759C1091.16 398.179 1098.9 413.65 1114.37 425.17C1129.84 436.361 1151.23 441.957 1178.55 441.957ZM1178.55 311.117C1152.22 311.117 1129.84 307.66 1111.4 300.748C1092.97 293.507 1078.82 283.303 1068.94 270.136C1059.07 256.641 1054.13 240.677 1054.13 222.244C1054.13 202.824 1059.23 186.201 1069.44 172.376C1079.97 158.223 1094.62 147.36 1113.38 139.79C1132.14 132.219 1153.87 128.434 1178.55 128.434C1203.57 128.434 1225.46 132.219 1244.22 139.79C1262.98 147.36 1277.63 158.223 1288.16 172.376C1298.7 186.201 1303.96 202.824 1303.96 222.244C1303.96 240.677 1299.02 256.641 1289.15 270.136C1279.27 283.303 1264.96 293.507 1246.19 300.748C1227.43 307.66 1204.88 311.117 1178.55 311.117ZM1178.55 279.517C1202.58 279.517 1221.34 274.58 1234.84 264.705C1248.66 254.831 1255.58 241.335 1255.58 224.219C1255.58 206.773 1248.5 193.113 1234.34 183.239C1220.19 173.364 1201.59 168.426 1178.55 168.426C1155.51 168.426 1137.08 173.364 1123.25 183.239C1109.76 193.113 1103.01 206.773 1103.01 224.219C1103.01 241.335 1109.59 254.831 1122.76 264.705C1136.26 274.58 1154.85 279.517 1178.55 279.517Z" fill="#FF004C"/>
<mask id="mask0_1343_14" style="mask-type:alpha" maskUnits="userSpaceOnUse" x="39" y="242" width="948" height="238">
<path d="M280.312 282.959C295.885 282.959 309.356 286.049 320.727 292.229C332.345 298.162 341.367 307.308 347.794 319.667C354.221 331.779 357.435 346.858 357.435 364.902V477.991H338.895V366.386C338.895 344.633 333.581 328.071 322.952 316.701C312.323 305.33 297.491 299.645 278.458 299.645C263.874 299.645 251.267 302.735 240.638 308.914C230.009 315.094 221.852 323.746 216.166 334.869C210.481 345.993 207.638 359.341 207.638 374.914V477.991H189.099V366.386C189.099 344.633 183.785 328.071 173.156 316.701C162.526 305.33 147.695 299.645 128.662 299.645C114.078 299.645 101.471 302.735 90.8418 308.914C80.2127 315.094 72.0555 323.746 66.3701 334.869C60.6848 345.993 57.8421 359.341 57.8421 374.914V477.991H39.303V284.443H57.1006V337.835L54.5051 331.903C60.1904 316.824 69.7072 304.959 83.0553 296.308C96.4035 287.409 112.471 282.959 131.257 282.959C150.538 282.959 166.729 287.903 179.83 297.791C193.178 307.431 201.582 321.892 205.043 341.172L198.74 338.577C203.931 322.015 213.694 308.667 228.031 298.532C242.368 288.15 259.795 282.959 280.312 282.959ZM512.59 479.474C496.028 479.474 481.691 476.508 469.579 470.576C457.467 464.396 448.074 455.25 441.4 443.138C434.973 430.778 431.759 415.576 431.759 397.531V284.443H450.298V396.048C450.298 417.801 455.86 434.362 466.984 445.733C478.107 457.104 493.803 462.789 514.073 462.789C528.657 462.789 541.264 459.699 551.893 453.52C562.522 447.34 570.679 438.688 576.364 427.565C582.05 416.194 584.892 402.846 584.892 387.52V284.443H603.432V477.991H585.634V424.228L588.229 430.531C582.544 445.61 573.027 457.598 559.679 466.497C546.578 475.149 530.882 479.474 512.59 479.474ZM738.376 479.474C721.32 479.474 708.219 474.778 699.073 465.385C690.174 455.991 685.725 443.138 685.725 426.823V242.173H704.264V424.969C704.264 437.329 707.354 446.845 713.534 453.52C719.714 460.194 728.612 463.531 740.23 463.531C752.342 463.531 762.354 459.946 770.264 452.778L778.05 465.755C773.106 470.452 767.05 473.913 759.882 476.137C752.96 478.362 745.792 479.474 738.376 479.474ZM650.13 300.386V284.443H765.814V300.386H650.13ZM901.477 479.474C881.949 479.474 864.646 475.272 849.568 466.868C834.736 458.463 822.995 446.845 814.343 432.014C805.939 417.183 801.737 400.25 801.737 381.217C801.737 361.936 805.692 345.004 813.602 330.42C821.759 315.588 832.882 303.97 846.972 295.566C861.062 287.162 876.882 282.959 894.432 282.959C911.983 282.959 927.679 287.038 941.522 295.195C955.612 303.353 966.611 314.847 974.521 329.678C982.679 344.262 986.757 361.195 986.757 380.475C986.757 381.217 986.634 382.082 986.386 383.071C986.386 383.812 986.386 384.678 986.386 385.666H815.456V371.206H976.375L968.96 378.251C969.207 363.172 965.993 349.7 959.319 337.835C952.892 325.723 944.117 316.33 932.994 309.656C921.87 302.735 909.016 299.274 894.432 299.274C880.095 299.274 867.242 302.735 855.871 309.656C844.747 316.33 835.972 325.723 829.545 337.835C823.118 349.7 819.905 363.296 819.905 378.621V381.958C819.905 397.779 823.366 411.868 830.287 424.228C837.455 436.34 847.219 445.857 859.579 452.778C871.938 459.452 886.028 462.789 901.848 462.789C914.207 462.789 925.702 460.564 936.331 456.115C947.207 451.666 956.353 444.868 963.769 435.722L974.521 447.958C966.117 458.34 955.488 466.25 942.634 471.688C930.028 476.879 916.309 479.474 901.477 479.474Z" fill="black"/>
</mask>
<g mask="url(#mask0_1343_14)">
<rect x="-502.471" y="-570.629" width="1724.17" height="1724.17" transform="rotate(-2.93087 -502.471 -570.629)" fill="#FF1313" fill-opacity="0.02"/>
<rect width="375.429" height="338.342" transform="translate(-427.092 550.582) rotate(-45.4809)" fill="#FF0000"/>
<rect x="-427.092" y="550.582" width="375.429" height="338.342" transform="rotate(-45.4809 -427.092 550.582)" fill="#1B1B1B"/>
<rect width="833.227" height="338.342" transform="translate(-118.348 854.189) rotate(-45.4809)" fill="#FF0000"/>
<rect x="-118.348" y="854.189" width="833.227" height="338.342" transform="rotate(-45.4809 -118.348 854.189)" fill="#1B1B1B"/>
<rect width="1183.96" height="385.071" transform="translate(168.557 1112.97) rotate(-45.4809)" fill="#FF0000"/>
<rect x="168.557" y="1112.97" width="1183.96" height="385.071" transform="rotate(-45.4809 168.557 1112.97)" fill="#1B1B1B"/>
<rect width="370.003" height="821.421" transform="translate(-443.777 -50.0059) rotate(-45.4809)" fill="#FF0000"/>
<rect x="-443.777" y="-50.0059" width="370.003" height="821.421" transform="rotate(-45.4809 -443.777 -50.0059)" fill="#FF004D"/>
<rect width="308.382" height="1204.19" transform="translate(-116.248 -383.109) rotate(-45.4809)" fill="#FF0000"/>
<rect x="-116.248" y="-383.109" width="308.382" height="1204.19" transform="rotate(-45.4809 -116.248 -383.109)" fill="#FF004D"/>
<rect width="314.246" height="1637.2" transform="translate(140.92 -644.624) rotate(-45.4809)" fill="#FF0000"/>
<rect x="140.92" y="-644.624" width="314.246" height="1637.2" transform="rotate(-45.4809 140.92 -644.624)" fill="#FF004D"/>
</g>
</svg>
