<svg width="3745" height="1246" viewBox="0 0 3745 1246" fill="none" xmlns="http://www.w3.org/2000/svg">
<g clip-path="url(#clip0_1335_14)">
<rect width="3745" height="1245.21" rx="123.434" fill="white"/>
<path d="M2388.21 776.712C2360.23 776.712 2336.04 772.597 2315.63 764.368C2295.23 756.139 2279.43 744.454 2268.23 729.313C2257.04 713.842 2251.45 695.739 2251.45 675.002C2251.45 654.594 2256.71 637.313 2267.25 623.159C2278.11 608.676 2293.74 597.814 2314.15 590.573C2334.56 583.002 2359.25 579.217 2388.21 579.217C2417.18 579.217 2441.87 583.002 2462.27 590.573C2483.01 597.814 2498.81 608.676 2509.67 623.159C2520.53 637.642 2525.97 654.923 2525.97 675.002C2525.97 695.739 2520.37 713.842 2509.18 729.313C2497.99 744.454 2482.02 756.139 2461.29 764.368C2440.55 772.597 2416.19 776.712 2388.21 776.712ZM2388.21 736.719C2415.86 736.719 2437.42 731.123 2452.89 719.932C2468.69 708.411 2476.59 692.941 2476.59 673.52C2476.59 654.429 2468.69 639.453 2452.89 628.59C2437.42 617.399 2415.86 611.803 2388.21 611.803C2360.89 611.803 2339.5 617.399 2324.03 628.59C2308.56 639.453 2300.82 654.429 2300.82 673.52C2300.82 692.941 2308.56 708.411 2324.03 719.932C2339.5 731.123 2360.89 736.719 2388.21 736.719ZM2388.21 605.878C2361.88 605.878 2339.5 602.422 2321.06 595.51C2302.63 588.268 2288.48 578.064 2278.6 564.898C2268.73 551.403 2263.79 535.438 2263.79 517.006C2263.79 497.585 2268.89 480.963 2279.1 467.138C2289.63 452.984 2304.28 442.122 2323.04 434.551C2341.8 426.981 2363.53 423.195 2388.21 423.195C2413.23 423.195 2435.12 426.981 2453.88 434.551C2472.64 442.122 2487.29 452.984 2497.82 467.138C2508.36 480.963 2513.62 497.585 2513.62 517.006C2513.62 535.438 2508.68 551.403 2498.81 564.898C2488.93 578.064 2474.62 588.268 2455.85 595.51C2437.09 602.422 2414.55 605.878 2388.21 605.878ZM2388.21 574.279C2412.24 574.279 2431 569.342 2444.5 559.467C2458.32 549.592 2465.24 536.097 2465.24 518.981C2465.24 501.535 2458.16 487.875 2444 478C2429.85 468.126 2411.25 463.188 2388.21 463.188C2365.17 463.188 2346.74 468.126 2332.91 478C2319.42 487.875 2312.67 501.535 2312.67 518.981C2312.67 536.097 2319.25 549.592 2332.42 559.467C2345.92 569.342 2364.51 574.279 2388.21 574.279Z" fill="#FF004C"/>
<mask id="mask0_1335_14" style="mask-type:alpha" maskUnits="userSpaceOnUse" x="1248" y="536" width="949" height="239">
<path d="M1489.97 577.721C1505.54 577.721 1519.02 580.811 1530.39 586.991C1542.01 592.923 1551.03 602.069 1557.45 614.429C1563.88 626.541 1567.09 641.619 1567.09 659.664V772.753H1548.56V661.147C1548.56 639.395 1543.24 622.833 1532.61 611.462C1521.98 600.092 1507.15 594.406 1488.12 594.406C1473.53 594.406 1460.93 597.496 1450.3 603.676C1439.67 609.856 1431.51 618.507 1425.83 629.631C1420.14 640.754 1417.3 654.102 1417.3 669.675V772.753H1398.76V661.147C1398.76 639.395 1393.44 622.833 1382.82 611.462C1372.19 600.092 1357.36 594.406 1338.32 594.406C1323.74 594.406 1311.13 597.496 1300.5 603.676C1289.87 609.856 1281.72 618.507 1276.03 629.631C1270.34 640.754 1267.5 654.102 1267.5 669.675V772.753H1248.96V579.204H1266.76V632.597L1264.17 626.665C1269.85 611.586 1279.37 599.721 1292.72 591.069C1306.06 582.171 1322.13 577.721 1340.92 577.721C1360.2 577.721 1376.39 582.665 1389.49 592.552C1402.84 602.193 1411.24 616.653 1414.7 635.934L1408.4 633.339C1413.59 616.777 1423.35 603.429 1437.69 593.294C1452.03 582.912 1469.46 577.721 1489.97 577.721ZM1722.25 774.236C1705.69 774.236 1691.35 771.27 1679.24 765.337C1667.13 759.158 1657.73 750.012 1651.06 737.899C1644.63 725.54 1641.42 710.338 1641.42 692.293V579.204H1659.96V690.81C1659.96 712.563 1665.52 729.124 1676.64 740.495C1687.77 751.865 1703.46 757.551 1723.73 757.551C1738.32 757.551 1750.92 754.461 1761.55 748.281C1772.18 742.102 1780.34 733.45 1786.02 722.326C1791.71 710.956 1794.55 697.608 1794.55 682.282V579.204H1813.09V772.753H1795.29V718.989L1797.89 725.293C1792.2 740.371 1782.69 752.36 1769.34 761.259C1756.24 769.91 1740.54 774.236 1722.25 774.236ZM1948.04 774.236C1930.98 774.236 1917.88 769.539 1908.73 760.146C1899.83 750.753 1895.39 737.899 1895.39 721.585V536.935H1913.92V719.731C1913.92 732.09 1917.01 741.607 1923.19 748.281C1929.37 754.955 1938.27 758.292 1949.89 758.292C1962 758.292 1972.01 754.708 1979.92 747.54L1987.71 760.517C1982.77 765.214 1976.71 768.674 1969.54 770.899C1962.62 773.124 1955.45 774.236 1948.04 774.236ZM1859.79 595.148V579.204H1975.47V595.148H1859.79ZM2111.14 774.236C2091.61 774.236 2074.31 770.034 2059.23 761.629C2044.4 753.225 2032.66 741.607 2024 726.776C2015.6 711.945 2011.4 695.012 2011.4 675.979C2011.4 656.698 2015.35 639.765 2023.26 625.181C2031.42 610.35 2042.54 598.732 2056.63 590.328C2070.72 581.923 2086.54 577.721 2104.09 577.721C2121.64 577.721 2137.34 581.8 2151.18 589.957C2165.27 598.114 2176.27 609.609 2184.18 624.44C2192.34 639.024 2196.42 655.956 2196.42 675.237C2196.42 675.979 2196.29 676.844 2196.05 677.833C2196.05 678.574 2196.05 679.439 2196.05 680.428H2025.12V665.967H2186.04L2178.62 673.012C2178.87 657.934 2175.65 644.462 2168.98 632.597C2162.55 620.485 2153.78 611.092 2142.65 604.418C2131.53 597.496 2118.68 594.036 2104.09 594.036C2089.76 594.036 2076.9 597.496 2065.53 604.418C2054.41 611.092 2045.63 620.485 2039.21 632.597C2032.78 644.462 2029.57 658.057 2029.57 673.383V676.72C2029.57 692.54 2033.03 706.63 2039.95 718.989C2047.12 731.102 2056.88 740.618 2069.24 747.54C2081.6 754.214 2095.69 757.551 2111.51 757.551C2123.87 757.551 2135.36 755.326 2145.99 750.877C2156.87 746.427 2166.01 739.63 2173.43 730.484L2184.18 742.72C2175.78 753.101 2165.15 761.011 2152.29 766.45C2139.69 771.641 2125.97 774.236 2111.14 774.236Z" fill="black"/>
</mask>
<g mask="url(#mask0_1335_14)">
<rect x="707.189" y="-275.867" width="1724.17" height="1724.17" transform="rotate(-2.93087 707.189 -275.867)" fill="#FF1313" fill-opacity="0.02"/>
<rect width="375.429" height="338.342" transform="translate(782.568 845.344) rotate(-45.4809)" fill="#FF0000"/>
<rect x="782.568" y="845.344" width="375.429" height="338.342" transform="rotate(-45.4809 782.568 845.344)" fill="#1B1B1B"/>
<rect width="833.227" height="338.342" transform="translate(1091.31 1148.95) rotate(-45.4809)" fill="#FF0000"/>
<rect x="1091.31" y="1148.95" width="833.227" height="338.342" transform="rotate(-45.4809 1091.31 1148.95)" fill="#1B1B1B"/>
<rect width="1183.96" height="385.071" transform="translate(1378.22 1407.73) rotate(-45.4809)" fill="#FF0000"/>
<rect x="1378.22" y="1407.73" width="1183.96" height="385.071" transform="rotate(-45.4809 1378.22 1407.73)" fill="#1B1B1B"/>
<rect width="370.003" height="821.421" transform="translate(765.883 244.756) rotate(-45.4809)" fill="#FF0000"/>
<rect x="765.883" y="244.756" width="370.003" height="821.421" transform="rotate(-45.4809 765.883 244.756)" fill="#FF004D"/>
<rect width="308.382" height="1204.19" transform="translate(1093.41 -88.3477) rotate(-45.4809)" fill="#FF0000"/>
<rect x="1093.41" y="-88.3477" width="308.382" height="1204.19" transform="rotate(-45.4809 1093.41 -88.3477)" fill="#FF004D"/>
<rect width="314.246" height="1637.2" transform="translate(1350.58 -349.862) rotate(-45.4809)" fill="#FF0000"/>
<rect x="1350.58" y="-349.862" width="314.246" height="1637.2" transform="rotate(-45.4809 1350.58 -349.862)" fill="#FF004D"/>
</g>
</g>
<defs>
<clipPath id="clip0_1335_14">
<rect width="3745" height="1245.21" fill="white"/>
</clipPath>
</defs>
</svg>
